# xmcd
#
# Track frame offsets:
#	150
#	13978
#	26959
#	39611
#	50864
#	62642
#	73412
#	86403
#	99052
#	112191
#	123715
#	135090
#	144424
#	156075
#	165600
#	175896
#	187490
#	197854
#	209890
#	221632
#	233954
#	247144
#	260517
#	269800
#	281626
#	292449
#	304661
#	315576
#	327471
#	339187
#
# Disc length: 4706 seconds
#
# Revision: 1
# Processed by: cddbd v1.5.1PL0 Copyright (c) Steve Scherf et al.
# Submitted via: audiograbber 1.83.01
#
DISCID=f312601e
DTITLE=Louvin Brothers - 1947 - 1962
DYEAR=1900
DGENRE=Bluegrass
TTITLE0=Alabama [Apollo 202] 18.12.1947
TTITLE1=Alabama [Decca] 23.08.1949
TTITLE2=Sever Years Blues  [Decca] 23.08.1949
TTITLE3=Broad minder
TTITLE4=I know what you're talking
TTITLE5=Let us travel, travel on
TTITLE6=I love God's Way of living
TTITLE7=From Mothers Arms to Korea
TTITLE8=No one to sing for me
TTITLE9=Where will you build
TTITLE10=When i stop dreaming
TTITLE11=Pitfall
TTITLE12=Don't laugh
TTITLE13=I don't believe you've met my Baby
TTITLE14=In the middle of nowhere
TTITLE15=Hoping that you're hoping
TTITLE16=I cried after you left
TTITLE17=That's all he's asking of me
TTITLE18=Dog seld
TTITLE19=I see a Bridge
TTITLE20=Just suppose
TTITLE21=It's Christmas Time
TTITLE22=Santa's big Parade
TTITLE23=You'll meet him in the clouds
TTITLE24=It hurts me more
TTITLE25=Every Time you leave
TTITLE26=Time goes so slow
TTITLE27=The first Time in Life
TTITLE28=There's no easy Way
TTITLE29=Don't let them take the Bible
EXTD=
EXTT0=
EXTT1=
EXTT2=
EXTT3=Alle anderen Tracks =Capitol
EXTT4=
EXTT5=
EXTT6=
EXTT7=
EXTT8=
EXTT9=
EXTT10=
EXTT11=
EXTT12=
EXTT13=
EXTT14=
EXTT15=
EXTT16=
EXTT17=
EXTT18=
EXTT19=
EXTT20=
EXTT21=
EXTT22=
EXTT23=
EXTT24=
EXTT25=
EXTT26=
EXTT27=
EXTT28=
EXTT29=
PLAYORDER=
